<?xml version="1.0" encoding="UTF-8" standalone="no"?>
<svg
   width="287.95"
   height="30.151236237960365"
   viewBox="0 0 460.314132411745 48.199479597215806"
   class="css-1j8o68f"
   version="1.1"
   id="svg40"
   sodipodi:docname="svgviewer-output.svg"
   inkscape:export-filename="svgviewer-output.png"
   inkscape:export-xdpi="96"
   inkscape:export-ydpi="96"
   inkscape:version="1.2.2 (732a01da63, 2022-12-09)"
   xmlns:inkscape="http://www.inkscape.org/namespaces/inkscape"
   xmlns:sodipodi="http://sodipodi.sourceforge.net/DTD/sodipodi-0.dtd"
   xmlns="http://www.w3.org/2000/svg"
   xmlns:svg="http://www.w3.org/2000/svg">
  <sodipodi:namedview
     id="namedview42"
     pagecolor="#ffffff"
     bordercolor="#666666"
     borderopacity="1.0"
     inkscape:showpageshadow="2"
     inkscape:pageopacity="0.0"
     inkscape:pagecheckerboard="0"
     inkscape:deskcolor="#d1d1d1"
     showgrid="false"
     inkscape:zoom="2.2590727"
     inkscape:cx="160.02141"
     inkscape:cy="83.883977"
     inkscape:window-width="1600"
     inkscape:window-height="1201"
     inkscape:window-x="-9"
     inkscape:window-y="56"
     inkscape:window-maximized="1"
     inkscape:current-layer="svg40" />
  <defs
     id="SvgjsDefs1013" />
  <g
     id="SvgjsG1014"
     featurekey="nameLeftFeature-0"
     transform="matrix(2.179985542544299,0,0,2.179985542544299,-5.197490555153606e-7,-3.728324547364098)"
     fill="#222831">
    <path
       d="M5.32 20 l-0.72 -4.94 l-2.02 0 l-0.66 4.94 l-1.92 0 l2.16 -14.3 l2.58 0 l2.5 14.3 l-1.92 0 z M2.84 13.16 l1.48 0 l-0.76 -5.2 z M12.5145 20.02 l-2.5 0 l0 -14.26 l2.5 0 c1.7 0 3.06 1.38 3.06 3.08 l0 8.1 c0 0.82 -0.32 1.6 -0.9 2.18 s-1.34 0.9 -2.16 0.9 z M11.9145 7.68 l0 10.42 l0.6 0 c0.3 0 0.6 -0.12 0.82 -0.34 s0.34 -0.5 0.34 -0.82 l0 -8.1 c0 -0.64 -0.52 -1.16 -1.16 -1.16 l-0.6 0 z M19.789 8.34 l-0.18 0 l-0.36 -1.04 l-0.9 0 l0 -1.58 l1.44 0 l0 2.62 z M25.3035 20.12 c-1.52 0 -2.74 -1.24 -2.74 -2.74 l0 -2.18 l1.94 0 l0 2.18 c0 0.44 0.36 0.8 0.8 0.8 s0.78 -0.36 0.78 -0.8 l0 -1.9 l-3.52 -4.86 l0 -2.48 c0 -1.52 1.22 -2.76 2.74 -2.76 c1.5 0 2.72 1.24 2.72 2.76 l0 2.16 l-1.94 0 l0 -2.16 c0 -0.46 -0.34 -0.8 -0.78 -0.8 s-0.8 0.34 -0.8 0.8 l0 1.82 l3.52 4.86 l0 2.56 c0 1.5 -1.22 2.74 -2.72 2.74 z M38.472500000000004 17 l0 2.98 l-1.9 0 l0 -14.26 l2.96 0 c1.32 0 2.38 1.08 2.38 2.4 l0 6.5 c0 1.32 -1.06 2.38 -2.38 2.38 l-1.06 0 z M38.472500000000004 7.619999999999999 l0 7.48 l1.06 0 c0.28 0 0.48 -0.2 0.48 -0.48 l0 -6.5 c0 -0.28 -0.2 -0.5 -0.48 -0.5 l-1.06 0 z M50.167 20.04 l-2.04 0 l-1.1 -3.02 l-0.44 0 l0 3.02 l-1.9 0 l0 -14.32 l2.98 0 c1.32 0 2.38 1.06 2.38 2.38 l0 6.54 c0 0.86 -0.44 1.6 -1.12 2.02 z M46.587 7.619999999999999 l0 7.5 l1.08 0 c0.26 0 0.48 -0.22 0.48 -0.48 l0 -6.54 c0 -0.26 -0.22 -0.48 -0.48 -0.48 l-1.08 0 z M55.64150000000001 20.02 c-1.5 0 -2.7 -1.22 -2.7 -2.7 l0 -8.98 c0 -1.48 1.2 -2.68 2.7 -2.68 c1.48 0 2.68 1.2 2.68 2.68 l0 8.98 c0 1.48 -1.2 2.7 -2.68 2.7 z M55.64150000000001 7.5600000000000005 c-0.44 0 -0.78 0.36 -0.78 0.78 l0 8.98 c0 0.44 0.34 0.78 0.78 0.78 c0.42 0 0.78 -0.34 0.78 -0.78 l0 -8.98 c0 -0.42 -0.36 -0.78 -0.78 -0.78 z M62.996 17 l0 2.98 l-1.9 0 l0 -14.26 l2.96 0 c1.32 0 2.38 1.08 2.38 2.4 l0 6.5 c0 1.32 -1.06 2.38 -2.38 2.38 l-1.06 0 z M62.996 7.619999999999999 l0 7.48 l1.06 0 c0.28 0 0.48 -0.2 0.48 -0.48 l0 -6.5 c0 -0.28 -0.2 -0.5 -0.48 -0.5 l-1.06 0 z M73.87049999999999 12.46 l-2.76 0 l0 5.64 l2.78 0 l0 1.9 l-4.68 0 l0 -14.28 l4.68 0 l0 1.9 l-2.78 0 l0 2.94 l2.76 0 l0 1.9 z M82.145 20.04 l-2.04 0 l-1.1 -3.02 l-0.44 0 l0 3.02 l-1.9 0 l0 -14.32 l2.98 0 c1.32 0 2.38 1.06 2.38 2.38 l0 6.54 c0 0.86 -0.44 1.6 -1.12 2.02 z M78.565 7.619999999999999 l0 7.5 l1.08 0 c0.26 0 0.48 -0.22 0.48 -0.48 l0 -6.54 c0 -0.26 -0.22 -0.48 -0.48 -0.48 l-1.08 0 z M91.37950000000001 5.68 l0 1.92 l-2.38 0 l0 12.42 l-1.92 0 l0 -12.42 l-2.62 0 l0 -1.92 l6.92 0 z M100.77400000000002 5.720000000000001 l-2.68 8.68 l0 5.6 l-1.94 0 l0 -5.62 l-2.46 -8.66 l2 0 l1.46 5.14 l1.6 -5.14 l2.02 0 z"
       id="path3"
       style="fill:#215b9d;fill-opacity:1" />
  </g>
  <g
     id="SvgjsG1015"
     featurekey="inlineSymbolFeature-0"
     transform="matrix(24.479167110601175,0,0,24.479167110601175,231.35885364227164,-37.085937822383485)"
     fill="#222831"
     style="fill:#215b9d;fill-opacity:1"
     inkscape:export-filename="SvgjsG1015.png"
     inkscape:export-xdpi="96"
     inkscape:export-ydpi="96">
    <g
       id="g34"
       style="fill:#215b9d;fill-opacity:1">
      <polygon
         fill="#222831"
         points="2.845,2.202 1.594,1.517 1.594,1.515 1.592,1.516 1.588,1.515 1.588,1.516 0.353,1.93 0.353,2.106    1.592,1.692 2.845,2.381  "
         id="polygon6"
         style="fill:#215b9d;fill-opacity:1" />
      <polygon
         fill="#222831"
         points="2.845,2.398 1.594,1.807 1.594,1.804 1.592,1.807 1.59,1.804 1.59,1.807 0.353,2.163 0.353,2.316    1.592,1.958 2.845,2.554  "
         id="polygon8"
         style="fill:#215b9d;fill-opacity:1" />
      <polygon
         fill="#222831"
         points="2.845,2.6 1.594,2.087 1.594,2.086 1.592,2.086 1.592,2.086 1.592,2.086 0.353,2.396 0.353,2.529    1.592,2.221 2.845,2.732  "
         id="polygon10"
         style="fill:#215b9d;fill-opacity:1" />
      <polygon
         fill="#222831"
         points="2.845,2.806 1.597,2.363 1.597,2.36 1.594,2.361 1.592,2.36 1.592,2.361 0.353,2.628 0.353,2.745    1.594,2.477 2.845,2.92  "
         id="polygon12"
         style="fill:#215b9d;fill-opacity:1" />
      <polygon
         fill="#222831"
         points="2.845,2.995 1.597,2.664 1.597,2.663 1.594,2.664 1.594,2.663 1.594,2.664 0.353,2.864    0.353,2.948 1.594,2.749 2.845,3.081  "
         id="polygon14"
         style="fill:#215b9d;fill-opacity:1" />
      <polygon
         fill="#222831"
         points="2.845,3.194 1.599,2.947 1.599,2.947 1.597,2.947 1.594,2.947 1.594,2.947 0.353,3.096    0.353,3.161 1.597,3.01 2.845,3.259  "
         id="polygon16"
         style="fill:#215b9d;fill-opacity:1" />
      <polygon
         fill="#222831"
         points="2.845,3.397 1.601,3.182 1.601,3.182 1.597,3.182 1.597,3.182 1.597,3.182 0.353,3.312    0.353,3.484 2.845,3.484  "
         id="polygon18"
         style="fill:#215b9d;fill-opacity:1" />
      <polygon
         fill="#222831"
         points="4.647,2.712 4.647,2.587 3.773,2.104 3.773,2.104 3.769,2.104 3.767,2.104 3.767,2.104    2.899,2.395 2.899,2.52 3.769,2.229  "
         id="polygon20"
         style="fill:#215b9d;fill-opacity:1" />
      <polygon
         fill="#222831"
         points="4.647,2.831 4.647,2.725 3.773,2.308 3.773,2.307 3.769,2.307 3.769,2.307 3.769,2.307    2.899,2.558 2.899,2.667 3.769,2.415  "
         id="polygon22"
         style="fill:#215b9d;fill-opacity:1" />
      <polygon
         fill="#222831"
         points="4.647,2.959 4.647,2.864 3.773,2.507 3.773,2.503 3.771,2.505 3.769,2.503 3.769,2.507    2.899,2.722 2.899,2.814 3.771,2.599  "
         id="polygon24"
         style="fill:#215b9d;fill-opacity:1" />
      <polygon
         fill="#222831"
         points="4.647,3.09 4.647,3.008 3.773,2.697 3.773,2.697 3.771,2.697 3.769,2.697 3.769,2.697 2.899,2.885    2.899,2.965 3.771,2.777  "
         id="polygon26"
         style="fill:#215b9d;fill-opacity:1" />
      <polygon
         fill="#222831"
         points="4.647,3.202 4.647,3.141 3.773,2.909 3.773,2.909 3.773,2.909 3.771,2.909 3.771,2.909    2.899,3.049 2.899,3.11 3.773,2.968  "
         id="polygon28"
         style="fill:#215b9d;fill-opacity:1" />
      <polygon
         fill="#222831"
         points="4.647,3.325 4.647,3.28 3.775,3.107 3.775,3.107 3.773,3.107 3.773,3.107 3.773,3.107 2.899,3.213    2.899,3.258 3.773,3.152  "
         id="polygon30"
         style="fill:#215b9d;fill-opacity:1" />
      <polygon
         fill="#222831"
         points="4.647,3.424 3.775,3.273 3.775,3.271 3.773,3.271 3.773,3.271 3.773,3.271 2.899,3.364    2.899,3.484 4.647,3.484  "
         id="polygon32"
         style="fill:#215b9d;fill-opacity:1" />
    </g>
  </g>
  <g
     id="SvgjsG1016"
     featurekey="nameRightFeature-0"
     transform="matrix(2.2252761310184836,0,0,2.2252761310184836,352.1501432191189,-4.55055389855479)"
     fill="#222831"
     style="fill:#215b9d;fill-opacity:1">
    <path
       d="M10.474499999999999 10.62 l0 1.88 l-2.82 0 l0 7.46 l-1.88 0 l0 -14.24 l4.66 0 l0 1.9 l-2.78 0 l0 3 l2.82 0 z M15.149 5.68 l0 14.24 l-1.9 0 l0 -14.24 l1.9 0 z M22.563499999999998 16.72 l0.08 -11.08 l1.92 0 l-0.12 14.44 l-2.98 0 l-1.62 -11.18 l0 11.18 l-1.92 0 l0 -14.44 l3.1 0 z M29.837999999999997 20.02 l-2.5 0 l0 -14.26 l2.5 0 c1.7 0 3.06 1.38 3.06 3.08 l0 8.1 c0 0.82 -0.32 1.6 -0.9 2.18 s-1.34 0.9 -2.16 0.9 z M29.237999999999996 7.68 l0 10.42 l0.6 0 c0.3 0 0.6 -0.12 0.82 -0.34 s0.34 -0.5 0.34 -0.82 l0 -8.1 c0 -0.64 -0.52 -1.16 -1.16 -1.16 l-0.6 0 z M40.332499999999996 12.46 l-2.76 0 l0 5.64 l2.78 0 l0 1.9 l-4.68 0 l0 -14.28 l4.68 0 l0 1.9 l-2.78 0 l0 2.94 l2.76 0 l0 1.9 z M48.607 20.04 l-2.04 0 l-1.1 -3.02 l-0.44 0 l0 3.02 l-1.9 0 l0 -14.32 l2.98 0 c1.32 0 2.38 1.06 2.38 2.38 l0 6.54 c0 0.86 -0.44 1.6 -1.12 2.02 z M45.026999999999994 7.619999999999999 l0 7.5 l1.08 0 c0.26 0 0.48 -0.22 0.48 -0.48 l0 -6.54 c0 -0.26 -0.22 -0.48 -0.48 -0.48 l-1.08 0 z"
       id="path37"
       style="fill:#215b9d;fill-opacity:1" />
  </g>
</svg>
